# xmcd
#
# Track frame offsets:
# 150
# 17002
# 34754
# 51080
# 67126
# 86401
# 109615
# 126410
# 145000
#
# Disc length: 2337 seconds
#
#
# Revision: 0
# Processed by: cddbd v1.5.2PL0 Copyright (c) Steve Scherf et al.
# Submitted via: FreeRIP 2.951 
#
DISCID=77091f09
DTITLE=John Mayall - No more Interviews
DYEAR=1979
DGENRE=Blues
TTITLE0=Hard going up
TTITLE1=A bigger Slice of Pie
TTITLE2=Falling
TTITLE3=Take me Home Tonight
TTITLE4=Sweet Honey bee
TTITLE5=Stars in the Night
TTITLE6=Consideration
TTITLE7=Gypsy Lady
TTITLE8=Wild new Lover
EXTD=
EXTT0=
EXTT1=
EXTT2=
EXTT3=
EXTT4=
EXTT5=
EXTT6=
EXTT7=
EXTT8=
PLAYORDER=
